#!OML:ASF H:\Not Pregnant\Project 1\Capture day 1\Session 1\non-pregnant.ASF
:FULLY-SPECIFIED
:DEGREES
1087
root 4.78376 18.489 15.4487 -172.43 176.498 -180.066
lowerback -2.75743 0.313196 -0.0676035
upperback -5.62456 0.403511 -0.621335
thorax -4.24605 0.191954 -0.60722
lowerneck 18.1131 -10.178 -31.7636
upperneck -1.86684 -20.7246 39.1351
head 4.79963 -12.3157 19.3265
rclavicle -3.08116e-015 2.16675e-014
rhumerus -41.3993 -17.5297 -75.8314
rradius 27.6394
rwrist 15.4546
rhand -7.63028 -5.93251
rfingers 7.12502
rthumb 18.2646 -35.095
lclavicle -3.08116e-015 2.16675e-014
lhumerus -46.0014 -1.30903 87.0983
lradius 37.8482
lwrist 30.0115
lhand -12.9149 -19.4965
lfingers 7.12502
lthumb 13.1752 10.0672
rfemur -28.7745 -5.41209 25.853
rtibia 25.5844
rfoot 0.375512 9.75857
rtoes -5.96394
lfemur -11.4552 6.05475 -23.1714
ltibia 57.8768
lfoot -37.4549 -7.14061
ltoes -24.5457
1088
root 4.78283 18.4495 15.5657 -172.254 177.008 -180.397
lowerback -3.01325 0.554838 0.321965
upperback -5.72889 0.725957 -0.622635
thorax -4.20315 0.336719 -0.827721
lowerneck 18.0967 -10.186 -31.7211
upperneck -1.88171 -20.7371 39.2741
head 4.82419 -12.3306 19.3941
rclavicle -1.06847e-014 2.94201e-014
rhumerus -41.3884 -18.0637 -75.6734
rradius 26.9395
rwrist 16.3468
rhand -7.48445 -6.0158
rfingers 7.12502
rthumb 18.4048 -35.1651
lclavicle -1.06847e-014 2.94201e-014
lhumerus -46.3081 0.0894891 85.9321
lradius 36.8265
lwrist 30.2782
lhand -13.8766 -19.4616
lfingers 7.12502
lthumb 12.2481 10.1598
rfemur -28.6782 -4.99787 26.3614
rtibia 25.8875
rfoot -0.940587 9.56546
rtoes -4.78927
lfemur -11.3993 6.18887 -22.829
ltibia 58.5119
lfoot -37.5017 -6.88632
ltoes -26.0428
1089
root 4.78176 18.4142 15.6817 -172.083 177.582 -180.705
lowerback -3.23482 0.808196 0.680896
upperback -5.82824 1.06197 -0.635176
thorax -4.17058 0.489143 -1.04125
lowerneck 18.0635 -10.1868 -31.6811
upperneck -1.88432 -20.7408 39.4338
head 4.85593 -12.3414 19.4762
rclavicle 1.20762e-014 -1.68967e-014
rhumerus -41.3325 -18.685 -75.479
rradius 26.1636
rwrist 17.4229
rhand -7.33273 -6.09279
rfingers 7.12502
rthumb 18.5508 -35.2282
lclavicle 1.20762e-014 -1.68967e-014
lhumerus -46.6091 1.57068 84.6657
lradius 35.7473
lwrist 30.6787
lhand -14.9003 -19.418
lfingers 7.12502
lthumb 11.2609 10.2597
rfemur -28.7069 -4.51734 26.8116
rtibia 26.4164
rfoot -2.08476 9.40574
rtoes -3.45543
lfemur -11.3314 6.33646 -22.53
ltibia 59.1248
lfoot -37.4446 -6.61026
ltoes -27.6176
1090
root 4.78093 18.3825 15.7963 -171.922 178.207 -180.995
lowerback -3.40393 1.06716 1.01681
upperback -5.92884 1.40433 -0.652953
thorax -4.16534 0.645243 -1.24661
lowerneck 18.0151 -10.179 -31.6475
upperneck -1.86437 -20.7355 39.5958
head 4.89445 -12.3467 19.5637
rclavicle -1.95803e-014 -3.18055e-015
rhumerus -41.251 -19.3915 -75.2333
rradius 25.323
rwrist 18.6982
rhand -7.19203 -6.13402
rfingers 7.12502
rthumb 18.6861 -35.2565
lclavicle -1.95803e-014 -3.18055e-015
lhumerus -46.9177 3.14381 83.2933
lradius 34.5951
lwrist 31.1598
lhand -15.9667 -19.3756
lfingers 7.12502
lthumb 10.2322 10.3555
rfemur -28.8311 -3.99776 27.2026
rtibia 27.1402
rfoot -3.07268 9.3109
rtoes -2.03347
lfemur -11.2781 6.49295 -22.2687
ltibia 59.7681
lfoot -37.2281 -6.588
ltoes -28.6671
1091
root 4.78056 18.3525 15.9083 -171.783 178.877 -181.292
lowerback -3.51453 1.33117 1.35761
upperback -6.01979 1.75314 -0.667936
thorax -4.179 0.80405 -1.45176
lowerneck 17.9535 -10.1644 -31.6174
upperneck -1.83326 -20.7203 39.758
head 4.93503 -12.3459 19.6548
rclavicle 2.3059e-014 1.17283e-014
rhumerus -41.1417 -20.1794 -74.9413
rradius 24.4437
rwrist 20.1717
rhand -7.07019 -6.15415
rfingers 7.12502
rthumb 18.8033 -35.2653
lclavicle 2.3059e-014 1.17283e-014
lhumerus -47.2304 4.80066 81.8161
lradius 33.4181
lwrist 31.6757
lhand -17.0968 -19.193
lfingers 7.12502
lthumb 9.1419 10.5888
rfemur -29.006 -3.45248 27.559
rtibia 27.9948
rfoot -3.91855 9.3184
rtoes -0.730724
lfemur -11.2631 6.67782 -22.014
ltibia 60.5036
lfoot -36.8787 -6.59875
ltoes -29.767
1092
root 4.78141 18.3231 16.0167 -171.675 179.575 -181.615
lowerback -3.54218 1.59507 1.73422
upperback -6.10217 2.10263 -0.675076
thorax -4.22574 0.961193 -1.67022
lowerneck 17.857 -10.1529 -31.5828
upperneck -1.77662 -20.7028 39.8954
head 4.98299 -12.3386 19.7283
rclavicle -7.00716e-015 3.57812e-015
rhumerus -41.0122 -21.05 -74.5999
rradius 23.536
rwrist 21.8525
rhand -6.9803 -6.14858
rfingers 7.12502
rthumb 18.8898 -35.2514
lclavicle -7.00716e-015 3.57812e-015
lhumerus -47.5613 6.50622 80.2547
lradius 32.2218
lwrist 32.2458
lhand -18.2791 -18.8977
lfingers 7.12502
lthumb 8.00095 10.9308
rfemur -29.1829 -2.93937 27.9102
rtibia 28.8996
rfoot -4.65299 9.49548
rtoes 0.139784
lfemur -11.311 6.89616 -21.7431
ltibia 61.39
lfoot -36.3627 -6.64166
ltoes -30.9353
1093
root 4.78424 18.2933 16.1213 -171.606 180.29 -181.98
lowerback -3.49714 1.85688 2.17454
upperback -6.16911 2.45096 -0.669886
thorax -4.29139 1.11465 -1.91343
lowerneck 17.7616 -10.135 -31.5567
upperneck -1.72844 -20.6754 40.0262
head 5.02412 -12.3261 19.8027
rclavicle -8.64713e-015 7.95139e-015
rhumerus -40.8741 -21.9625 -74.2304
rradius 22.6473
rwrist 23.6903
rhand -6.90644 -6.16537
rfingers 7.12502
rthumb 18.9608 -35.2612
lclavicle -8.64713e-015 7.95139e-015
lhumerus -47.9204 8.22853 78.6285
lradius 31.0295
lwrist 32.8234
lhand -19.5141 -18.474
lfingers 7.12502
lthumb 6.8089 11.3965
rfemur -29.308 -2.50597 28.2834
rtibia 29.7773
rfoot -5.3279 9.88037
rtoes 0.345031
lfemur -11.4321 7.16979 -21.4328
ltibia 62.4725
lfoot -35.6558 -6.73292
ltoes -32.1708
1094
root 4.78944 18.2634 16.2224 -171.575 180.995 -182.393
lowerback -3.36955 2.10685 2.68955
upperback -6.22555 2.78678 -0.650138
thorax -4.38633 1.25791 -2.18653
lowerneck 17.6589 -10.1108 -31.537
upperneck -1.67616 -20.6371 40.1423
head 5.06121 -12.3064 19.8723
rclavicle -1.963e-014 -6.75868e-015
rhumerus -40.7457 -22.8782 -73.8514
rradius 21.8142
rwrist 25.6307
rhand -6.83756 -6.18618
rfingers 7.12502
rthumb 19.027 -35.2755
lclavicle -1.963e-014 -6.75868e-015
lhumerus -48.3225 9.9197 76.9647
lradius 29.8693
lwrist 33.3909
lhand -20.8164 -17.8839
lfingers 7.12502
lthumb 5.55157 12.0234
rfemur -29.3507 -2.19268 28.6954
rtibia 30.5721
rfoot -5.99194 10.4737
rtoes -0.189037
lfemur -11.6452 7.50551 -21.067
ltibia 63.7728
lfoot -34.7179 -6.89601
ltoes -33.4483
1095
root 4.79688 18.2337 16.3206 -171.572 181.669 -182.846
lowerback -3.1865 2.33918 3.27379
upperback -6.26395 3.10301 -0.619828
thorax -4.48746 1.3878 -2.48997
lowerneck 17.5386 -10.0898 -31.5194
upperneck -1.62676 -20.5972 40.2467
head 5.09816 -12.2833 19.9337
rclavicle -5.97348e-014 -1.39149e-014
rhumerus -40.6063 -23.7544 -73.5045
rradius 21.0616
rwrist 27.5884
rhand -6.74477 -6.27309
rfingers 7.12502
rthumb 19.1163 -35.3536
lclavicle -5.97348e-014 -1.39149e-014
lhumerus -48.7495 11.539 75.2928
lradius 28.7653
lwrist 33.9046
lhand -22.124 -17.1058
lfingers 7.12502
lthumb 4.289 12.8308
rfemur -29.3016 -2.00463 29.1435
rtibia 31.2556
rfoot -6.68829 11.2273
rtoes -1.32075
lfemur -11.9682 7.91027 -20.6419
ltibia 65.2883
lfoot -33.5148 -7.15296
ltoes -34.7389
1096
root 4.80603 18.205 16.416 -171.584 182.286 -183.311
lowerback -2.96083 2.54337 3.89178
upperback -6.29223 3.38655 -0.582381
thorax -4.5983 1.49903 -2.80746
lowerneck 17.4119 -10.0653 -31.5086
upperneck -1.57748 -20.55 40.3368
head 5.13134 -12.2549 19.9892
rclavicle 1.08586e-014 1.39149e-014
rhumerus -40.4602 -24.5087 -73.2402
rradius 20.4427
rwrist 29.444
rhand -6.6104 -6.38784
rfingers 7.12502
rthumb 19.2455 -35.4556
lclavicle 1.08586e-014 1.39149e-014
lhumerus -49.2191 13.0406 73.6592
lradius 27.7705
lwrist 34.3553
lhand -23.4674 -16.1215
lfingers 7.12502
lthumb 2.99172 13.8372
rfemur -29.1809 -1.94201 29.6047
rtibia 31.8298
rfoot -7.43533 12.0685
rtoes -2.79965
lfemur -12.4248 8.37692 -20.1769
ltibia 66.9925
lfoot -31.9496 -7.88528
ltoes -35.2103
1097
root 4.81587 18.1776 16.509 -171.599 182.825 -183.759
lowerback -2.70689 2.70936 4.49623
upperback -6.31367 3.62411 -0.540359
thorax -4.71839 1.587 -3.11482
lowerneck 17.266 -10.0425 -31.504
upperneck -1.51879 -20.5011 40.4042
head 5.16643 -12.222 20.0308
rclavicle -1.02871e-014 -9.93923e-015
rhumerus -40.2954 -25.0633 -73.1092
rradius 19.9856
rwrist 31.0867
rhand -6.41957 -6.5055
rfingers 7.12502
rthumb 19.429 -35.5548
lclavicle -1.02871e-014 -9.93923e-015
lhumerus -49.7218 14.3728 72.1231
lradius 26.9101
lwrist 34.7379
lhand -24.8142 -14.9366
lfingers 7.12502
lthumb 1.69098 15.0364
rfemur -29.013 -1.97754 30.0508
rtibia 32.316
rfoot -8.23054 12.8941
rtoes -4.34225
lfemur -13.0299 8.89302 -19.6925
ltibia 68.8432
lfoot -30.0385 -8.85599
ltoes -35.2671
1098
root 4.82551 18.1518 16.6001 -171.613 183.263 -184.155
lowerback -2.44184 2.83284 5.04306
upperback -6.32983 3.80878 -0.501218
thorax -4.84361 1.65026 -3.3943
lowerneck 17.1078 -10.0244 -31.5047
upperneck -1.45845 -20.4548 40.4515
head 5.2022 -12.1876 20.059
rclavicle -1.49089e-016 1.27222e-014
rhumerus -40.0926 -25.3895 -73.1371
rradius 19.6868
rwrist 32.4429
rhand -6.16825 -6.60767
rfingers 7.12502
rthumb 19.6706 -35.6324
lclavicle -1.49089e-016 1.27222e-014
lhumerus -50.2474 15.4829 70.7454
lradius 26.2228
lwrist 35.0382
lhand -26.146 -13.5376
lfingers 7.12502
lthumb 0.404778 16.4418
rfemur -28.8247 -2.09165 30.4502
rtibia 32.7446
rfoot -9.04292 13.6161
rtoes -5.67582
lfemur -13.7825 9.41678 -19.2187
ltibia 70.7894
lfoot -27.7645 -10.1205
ltoes -34.6489
1099
root 4.83383 18.1279 16.6896 -171.625 183.59 -184.483
lowerback -2.18387 2.91148 5.49613
upperback -6.33417 3.93526 -0.465645
thorax -4.96079 1.68859 -3.62501
lowerneck 16.9372 -10.014 -31.5108
upperneck -1.40193 -20.4145 40.4823
head 5.23936 -12.1536 20.0743
rclavicle -1.2921e-015 -7.95139e-015
rhumerus -39.8236 -25.4486 -73.3551
rradius 19.5392
rwrist 33.4456
rhand -5.86454 -6.69047
rfingers 7.12502
rthumb 19.9626 -35.6851
lclavicle -1.2921e-015 -7.95139e-015
lhumerus -50.7549 16.3084 69.6201
lradius 25.7357
lwrist 35.3218
lhand -27.4849 -11.9151
lfingers 7.12502
lthumb -0.888427 18.0628
rfemur -28.6308 -2.24824 30.785
rtibia 33.1417
rfoot -9.83428 14.1562
rtoes -6.6149
lfemur -14.6699 9.91283 -18.7706
ltibia 72.7798
lfoot -25.2048 -11.5831
ltoes -33.4573
1100
root 4.84016 18.1059 16.7777 -171.639 183.798 -184.741
lowerback -1.9304 2.94629 5.84748
upperback -6.32981 4.00408 -0.432144
thorax -5.07663 1.7027 -3.80088
lowerneck 16.7633 -10.0125 -31.5222
upperneck -1.35441 -20.3838 40.5024
head 5.27756 -12.1234 20.0803
rclavicle -2.78299e-015 -7.15625e-015
rhumerus -39.4857 -25.2239 -73.7678
rradius 19.5306
rwrist 34.0522
rhand -5.53372 -6.72594
rfingers 7.12502
rthumb 20.2805 -35.6871
lclavicle -2.78299e-015 -7.15625e-015
lhumerus -51.2385 16.9393 68.6447
lradius 25.3398
lwrist 35.2119
lhand -28.4802 -10.116
lfingers 7.12502
lthumb -1.84971 19.8557
rfemur -28.4384 -2.41904 31.0559
rtibia 33.5242
rfoot -10.5671 14.4791
rtoes -7.06731
lfemur -15.6735 10.3407 -18.3501
ltibia 74.7723
lfoot -22.5294 -13.0749
ltoes -32.0035
